<?xml version="1.0" encoding="UTF-8" standalone="no"?>
<!DOCTYPE svg PUBLIC "-//W3C//DTD SVG 1.1//EN" "http://www.w3.org/Graphics/SVG/1.1/DTD/svg11.dtd">
<svg width="100%" height="100%" viewBox="0 0 1920 1080" version="1.1" xmlns="http://www.w3.org/2000/svg" xmlns:xlink="http://www.w3.org/1999/xlink" xml:space="preserve" xmlns:serif="http://www.serif.com/" style="fill-rule:evenodd;clip-rule:evenodd;stroke-linejoin:round;stroke-miterlimit:2;">
    <g transform="matrix(1,0,0,1,-783.863073,0)">
        <g id="Loqo" transform="matrix(1,0,0,1,783.863073,0)">
            <rect x="0" y="0" width="1920" height="1080" style="fill:none;"/>
            <g>
                <g transform="matrix(1.154639,0,0,0.990158,-818.548367,243.237245)">
                    <rect x="824.719" y="323.527" width="257.294" height="186.785" style="fill:rgb(255,198,0);"/>
                </g>
                <g transform="matrix(1.154639,0,0,0.990158,-790.696913,5.022637)">
                    <rect x="824.719" y="323.527" width="257.294" height="186.785" style="fill:rgb(255,198,0);"/>
                </g>
                <g id="B" transform="matrix(63.745872,0,0,63.745872,-54444.350897,-20309.821581)">
                    <path d="M854.498,331.369L856.297,322.779L859.232,322.779C859.869,322.779 860.314,322.799 860.568,322.838C860.99,322.897 861.347,323.014 861.64,323.19C861.933,323.365 862.156,323.6 862.308,323.893C862.461,324.186 862.537,324.51 862.537,324.865C862.537,325.342 862.404,325.755 862.138,326.105C861.873,326.454 861.463,326.719 860.908,326.898C861.349,327.02 861.694,327.235 861.942,327.546C862.19,327.857 862.314,328.207 862.314,328.598C862.314,329.113 862.168,329.603 861.875,330.065C861.582,330.528 861.177,330.861 860.662,331.065C860.146,331.268 859.441,331.369 858.547,331.369L854.498,331.369ZM856.554,329.986L858.259,329.986C858.974,329.986 859.454,329.94 859.698,329.849C859.942,329.757 860.137,329.606 860.284,329.395C860.43,329.184 860.504,328.961 860.504,328.727C860.504,328.441 860.398,328.206 860.187,328.021C859.976,327.835 859.625,327.742 859.132,327.742L857.023,327.742L856.554,329.986ZM857.334,326.248L858.681,326.248C859.287,326.248 859.722,326.205 859.988,326.119C860.254,326.033 860.453,325.893 860.586,325.697C860.718,325.502 860.785,325.293 860.785,325.07C860.785,324.852 860.722,324.672 860.597,324.531C860.472,324.391 860.295,324.297 860.064,324.25C859.935,324.227 859.625,324.215 859.132,324.215L857.761,324.215L857.334,326.248Z" style="fill:rgb(137,137,137);"/>
                </g>
                <g id="O" transform="matrix(63.745872,0,0,63.745872,-54444.350897,-20309.821581)">
                    <path d="M863.732,328C863.732,327.492 863.808,326.957 863.961,326.395C864.16,325.641 864.463,324.986 864.872,324.432C865.28,323.877 865.795,323.439 866.416,323.116C867.037,322.794 867.744,322.633 868.537,322.633C869.599,322.633 870.458,322.963 871.112,323.623C871.766,324.283 872.093,325.158 872.093,326.248C872.093,327.154 871.88,328.031 871.455,328.879C871.029,329.727 870.451,330.379 869.72,330.836C868.99,331.293 868.164,331.522 867.242,331.522C866.441,331.522 865.769,331.34 865.226,330.977C864.683,330.613 864.298,330.163 864.072,329.626C863.845,329.089 863.732,328.547 863.732,328ZM865.478,327.965C865.478,328.555 865.658,329.049 866.017,329.447C866.377,329.846 866.849,330.045 867.435,330.045C867.912,330.045 868.37,329.888 868.809,329.573C869.249,329.259 869.612,328.782 869.899,328.144C870.186,327.505 870.33,326.883 870.33,326.277C870.33,325.602 870.148,325.071 869.785,324.687C869.422,324.302 868.959,324.109 868.396,324.109C867.533,324.109 866.831,324.512 866.29,325.316C865.749,326.121 865.478,327.004 865.478,327.965Z" style="fill:rgb(137,137,137);fill-rule:nonzero;"/>
                </g>
                <g id="L" transform="matrix(63.745872,0,0,63.745872,-54444.350897,-20309.821581)">
                    <path d="M872.556,331.369L874.355,322.779L876.119,322.779L874.625,329.934L878.996,329.934L878.697,331.369L872.556,331.369Z" style="fill:rgb(255,198,0);fill-rule:nonzero;"/>
                </g>
                <g id="T" transform="matrix(63.745872,0,0,63.745872,-54646.672318,-20309.634826)">
                    <path d="M882.687,331.369L880.918,331.369L882.418,324.215L878.99,324.224L879.291,322.776L886.964,322.779L886.666,324.215L884.181,324.215L882.687,331.369Z" style="fill:rgb(137,137,137);fill-rule:nonzero;"/>
                </g>
                <g transform="matrix(0.606707,0,0,0.307708,-917.497581,300.49518)">
                    <path d="M2956.19,860.831L2795.719,860.831L3035.907,318.421L2956.19,695.873L3116.661,695.873L2881.848,1238.283L2956.19,860.831Z" style="fill:rgb(255,198,0);"/>
                </g>
            </g>
        </g>
    </g>
</svg>
